<?xml version="1.0" standalone="no"?>
<!DOCTYPE svg PUBLIC "-//W3C//DTD SVG 20010904//EN"
 "http://www.w3.org/TR/2001/REC-SVG-20010904/DTD/svg10.dtd">
<svg version="1.0" xmlns="http://www.w3.org/2000/svg"
 width="512.000000pt" height="512.000000pt" viewBox="0 0 512.000000 512.000000"
 preserveAspectRatio="xMidYMid meet">
<metadata>
Created by potrace 1.11, written by Peter Selinger 2001-2013
</metadata>
<g transform="translate(0.000000,512.000000) scale(0.100000,-0.100000)"
fill="#000000" stroke="none">
<path d="M2545 5019 c-125 -12 -189 -21 -215 -31 -14 -5 -25 -9 -25 -8 0 1
-20 -3 -45 -10 -419 -108 -784 -415 -994 -836 -29 -60 -57 -120 -61 -134 -4
-14 -11 -29 -15 -35 -15 -21 -85 -249 -96 -314 -3 -14 -9 -51 -14 -81 -27
-161 -36 -293 -34 -519 2 -242 10 -336 45 -501 51 -238 143 -459 268 -640 58
-85 88 -120 174 -208 47 -48 64 -72 50 -68 -43 13 -70 17 -158 23 -334 21
-603 -174 -607 -439 -3 -170 89 -285 297 -369 44 -18 36 -15 215 -63 216 -57
244 -68 312 -119 75 -57 91 -190 31 -264 -74 -92 -243 -130 -406 -93 -125 28
-221 119 -236 225 l-6 40 -127 2 c-70 1 -129 -1 -132 -5 -2 -4 0 -33 5 -65 23
-147 122 -272 274 -347 107 -53 179 -71 306 -74 115 -4 196 5 274 30 225 71
346 218 346 419 0 196 -121 324 -386 407 -85 27 -109 34 -248 69 -102 26 -203
74 -228 109 -28 39 -38 99 -24 152 29 114 149 180 312 172 148 -8 264 -91 293
-212 l11 -48 127 1 127 0 0 35 c1 40 -25 130 -48 175 -9 16 -15 30 -13 32 1 1
40 -16 87 -39 93 -45 223 -89 342 -115 l77 -16 1 -416 c0 -229 3 -433 5 -454
12 -101 72 -203 146 -252 73 -49 244 -66 356 -36 l42 12 0 104 0 105 -37 -7
c-59 -10 -149 -6 -175 8 -34 18 -57 48 -68 90 -6 23 -9 188 -8 429 l3 392 125
3 c69 2 145 6 170 10 122 17 171 26 237 45 40 11 75 20 78 20 3 0 -2 -17 -11
-38 -66 -148 -84 -258 -79 -462 5 -192 37 -310 120 -435 123 -185 315 -285
555 -290 224 -4 402 67 529 212 64 72 66 77 30 105 -17 12 -52 40 -78 60 l-47
37 -46 -49 c-99 -105 -212 -153 -358 -153 -244 1 -414 175 -445 453 l-5 45
503 0 c276 0 509 1 518 3 10 2 15 12 13 25 -2 12 -5 81 -8 152 -6 155 -29 256
-86 372 -86 175 -247 286 -449 308 l-64 7 29 28 c37 34 101 108 158 185 51 67
53 56 -25 117 -19 15 -79 62 -134 105 -55 43 -117 91 -138 107 l-37 29 -96
-101 c-259 -275 -501 -384 -859 -386 l-100 -1 -3 128 -3 127 -129 0 -130 0 0
-100 0 -100 -52 21 c-212 83 -412 272 -525 494 -60 117 -111 273 -128 391 -4
21 -8 50 -11 64 -2 14 -7 60 -10 103 l-6 77 1240 0 1240 0 -4 243 c-2 133 -6
260 -8 282 -2 22 -7 67 -10 100 -7 68 -10 86 -32 203 -133 729 -608 1185
-1289 1237 -122 10 -183 11 -260 4z m300 -528 c241 -49 438 -209 553 -452 40
-84 88 -241 98 -324 3 -22 7 -45 9 -52 2 -6 7 -54 11 -106 l6 -94 -916 0 -916
0 4 26 c22 142 32 190 58 276 120 408 402 683 753 735 65 10 276 4 340 -9z
m1110 -3060 c138 -38 231 -172 251 -363 l6 -58 -381 0 -382 0 7 38 c27 161
113 300 219 355 80 41 191 53 280 28z"/>
</g>
</svg>
